<?xml version="1.0" encoding="UTF-8"?>
<svg xmlns="http://www.w3.org/2000/svg" id="Layer_1_copy" data-name="Layer 1 copy" viewBox="0 0 512 512" width="512" height="512"><path d="M479,119.366l25,25v320c0,22.091-60.889,40-136,40s-136-17.909-136-40v-320l25-25Z" style="fill:#f4dfcb"/><path d="M504,216c0,22.091-60.889,40-136,40s-136-17.909-136-40c8.89-8.741,136-48,136-48S493.37,205.512,504,216Z" style="fill:#d3ba8d"/><path d="M314.343,119.366H257l-25,25v320c0,16.487,33.916,30.642,82.343,36.764Z" style="fill:#fcfcfc;opacity:0.2"/><path d="M421.657,119.366H479l25,25v320c0,16.487-33.916,30.642-82.343,36.764Z" style="fill:#f4c250;opacity:0.30000000000000004"/><path d="M8,432s0,56,88,64,128-40,128-40l216-.333L480,424H198Z" style="fill:#fd7c26"/><path d="M200,432c0,17.673-42.981,32-96,32S8,449.673,8,432s42.981-80,96-80S200,414.327,200,432Z" style="fill:#f4dfcb"/><path d="M504,48.366v48c0,22.091-60.889,40-136,40s-136-17.909-136-40v-48Z" style="fill:#af4732"/><ellipse cx="368" cy="48.366" rx="136" ry="40" style="fill:#631c18"/><path d="M104,352a70.266,70.266,0,0,0-13.486,1.335c11.638,17.782,35.247,59.253,40.209,109.407C170.739,458.884,200,446.582,200,432,200,414.327,157.019,352,104,352Z" style="fill:#994c11;opacity:0.2"/><path d="M366.944,8.37C292.32,8.537,232,26.378,232,48.366c0,17.076,36.384,31.65,87.592,37.389C275.972,46.915,329.643,20.8,366.944,8.37Z" style="fill:#fcfcfc;opacity:0.2"/><path d="M368,0C296.441,0,224,16.488,224,48V96c0,9.952,7.232,18.4,19.373,25.313L224,140.687V416H203.558c-5.2-11.251-14.563-24.553-25.952-36.217C164.556,366.419,137.641,344,104,344s-60.556,22.419-73.606,35.783C12.783,397.819,0,419.779,0,432c0,.082,0,.4.028.9.009.2.021.4.036.6.308,4.456,2.1,18.064,12.484,32.228,11.01,15.013,34.3,33.833,82.727,38.236,7.092.645,13.872.942,20.374.942,60.973,0,96.13-26.211,108.943-38.1C231.568,495.185,300.174,510,368,510c70.028,0,140.888-15.792,143.889-46H512V140.687l-19.373-19.373C504.768,114.4,512,105.952,512,96V48C512,16.488,439.559,0,368,0ZM41.841,390.962C53.133,379.4,76.223,360,104,360s50.867,19.4,62.159,30.962C184.2,409.434,192,427.077,192,432c0,8.146-31.061,24-88,24-56.915,0-87.973-15.841-88-23.99v-.024C16.014,427.045,23.819,409.418,41.841,390.962Zm176.032,59.894c-.095.112-9.713,11.33-29.345,21.453-18.1,9.335-48.726,19.642-91.8,15.724-37.062-3.369-57.109-15.473-67.952-27.585C48.667,468.087,76.423,472,104,472c51.682,0,104-13.74,104-40H457.006l-19.794,15.671L223.988,448A8.062,8.062,0,0,0,217.873,450.856Zm244.036,31.753C436.935,489.955,403.584,494,368,494s-68.935-4.045-93.909-11.391c-23.053-6.78-31.62-14.181-33.6-18.635l199.526-.308a8,8,0,0,0,4.954-1.728l40-31.667A8,8,0,0,0,480,416H240V239.27C265.279,255.577,316.861,264,368,264s102.721-8.423,128-24.73V462C496,465.931,488.82,474.694,461.909,482.609ZM246.879,224.756c19.576-9.377,72.065-30.042,121.154-48.237,49.275,17.835,102.059,38.448,121.329,48.06-5.123,3.728-13.711,7.99-27.453,12.031C436.935,243.955,403.584,248,368,248s-68.935-4.045-93.909-11.391C260.568,232.632,252.03,228.441,246.879,224.756ZM496,147.314v62.774c-9.583-4.77-27.521-12.612-62.1-25.983-31.887-12.329-62.875-23.519-63.184-23.63l-2.749-.992-2.741,1.014c-.313.116-31.718,11.735-63.8,24.274C267.263,198.12,249.5,205.777,240,210.358V147.314l18.91-18.91C286.683,138.711,327.48,144,368,144s81.317-5.289,109.09-15.6Zm-34.091-30.7C436.935,123.955,403.584,128,368,128s-68.935-4.045-93.909-11.391C247.18,108.694,240,99.931,240,96V71.27C265.279,87.577,316.861,96,368,96s102.721-8.423,128-24.73V96C496,99.931,488.82,108.694,461.909,116.609Zm0-48C436.935,75.955,403.584,80,368,80s-68.935-4.045-93.909-11.391C247.18,60.694,240,51.931,240,48s7.18-12.694,34.091-20.609C299.065,20.045,332.416,16,368,16s68.935,4.045,93.909,11.391C488.82,35.306,496,44.069,496,48S488.82,60.694,461.909,68.609Z"/><path d="M328,312a32.036,32.036,0,0,0,32,32h24a16,16,0,0,1,0,32H328v16h56a32,32,0,0,0,0-64H360a16,16,0,0,1,0-32h56V280H360A32.036,32.036,0,0,0,328,312Z"/><path d="M90.53,391.589l-5.06-15.179c-27.479,9.16-36.681,35.925-37.06,37.06l15.167,5.093C63.648,418.36,70.781,398.172,90.53,391.589Z"/></svg>
