<svg id="Filled" height="512" viewBox="0 0 512 512" width="512" xmlns="http://www.w3.org/2000/svg"><path d="m240 24h32v48h-32z" fill="#c2c5c6"/><path d="m232 56h48a160 160 0 0 1 160 160v24a0 0 0 0 1 0 0h-368a0 0 0 0 1 0 0v-24a160 160 0 0 1 160-160z" fill="#d9dbdd"/><path d="m264 456h96v32h-96z" fill="#e74444"/><path d="m32 232h448a0 0 0 0 1 0 0v16a16 16 0 0 1 -16 16h-416a16 16 0 0 1 -16-16v-16a0 0 0 0 1 0 0z" fill="#c2c5c6"/><path d="m138.909 288-6.646-14.621a16 16 0 0 0 -14.563-9.379h-4.564c-14.592 0-21.568 17.934-10.812 27.794l65.676 60.206v-64z" fill="#deb89a"/><path d="m352 456v-24l6.627-6.627a32 32 0 0 0 9.373-22.628v-50.745l29.718-65.379a16 16 0 0 0 -14.566-22.621h-13.652a16 16 0 0 0 -14.046 8.338l-43.454 79.662-32 8-80-32-27.578-55.155a16 16 0 0 0 -14.311-8.845h-5.263a16 16 0 0 0 -14.566 22.621l29.718 65.379 120 104z" fill="#f5cbaa"/><path d="m48 272h42.523a23.832 23.832 0 0 0 6.393 25.692l65.678 60.2.006-.006c.055.05.1.106.161.154l103.793 89.96h-2.554a8 8 0 0 0 -8 8v32a8 8 0 0 0 8 8h96a8 8 0 0 0 8-8v-32a8 8 0 0 0 -8-8v-12.687l4.284-4.284a39.735 39.735 0 0 0 11.716-28.284v-49.012l29-63.8a23.884 23.884 0 0 0 .776-17.933h58.224a24.028 24.028 0 0 0 24-24v-16a8 8 0 0 0 -8-8h-32v-8c0-92.636-75.364-168-168-168v-16h8a8 8 0 0 0 0-16h-64a8 8 0 0 0 0 16h8v16c-92.636 0-168 75.364-168 168v8h-32a8 8 0 0 0 -8 8v16a24.028 24.028 0 0 0 24 24zm57.677 5.1a7.823 7.823 0 0 1 7.456-5.1h4.567a8.016 8.016 0 0 1 7.283 4.689l6.014 13.23v.012l13.48 29.655-36.75-33.686a7.823 7.823 0 0 1 -2.05-8.8zm246.323 202.9h-80v-16h80zm37.878-204.331a7.864 7.864 0 0 1 .557 7.641l-29.718 65.379a8.013 8.013 0 0 0 -.717 3.311v50.745a23.847 23.847 0 0 1 -7.029 16.971l-6.628 6.627a8 8 0 0 0 -2.343 5.657v16h-53.016l-116.424-100.9-29-63.789a8 8 0 0 1 7.288-11.311h5.263a7.956 7.956 0 0 1 7.156 4.422l27.578 55.156a8 8 0 0 0 4.184 3.85l80 32a8 8 0 0 0 4.911.333l32-8a8 8 0 0 0 5.083-3.93l43.452-79.662a8 8 0 0 1 7.025-4.169h13.654a7.864 7.864 0 0 1 6.724 3.669zm-208.934-3.669h165.58l-39.867 73.09-26.088 6.521-74.769-29.911zm67.056-240h16v16h-16zm-168 184c0-83.813 68.187-152 152-152h48c83.813 0 152 68.187 152 152v8h-352zm-40 24h432v8a8.009 8.009 0 0 1 -8 8h-416a8.009 8.009 0 0 1 -8-8z"/></svg>